<?xml version="1.0" encoding="UTF-8" standalone="no"?>
<!-- Created with Inkscape (http://www.inkscape.org/) -->

<svg
   width="52mm"
   height="202mm"
   viewBox="0 0 52 202"
   version="1.1"
   id="svg5"
   inkscape:version="1.2 (dc2aedaf03, 2022-05-15)"
   sodipodi:docname="whitekey1.svg"
   inkscape:export-filename="whitekey1.png"
   inkscape:export-xdpi="96"
   inkscape:export-ydpi="96"
   xmlns:inkscape="http://www.inkscape.org/namespaces/inkscape"
   xmlns:sodipodi="http://sodipodi.sourceforge.net/DTD/sodipodi-0.dtd"
   xmlns="http://www.w3.org/2000/svg"
   xmlns:svg="http://www.w3.org/2000/svg">
  <sodipodi:namedview
     id="namedview7"
     pagecolor="#5c5c5c"
     bordercolor="#000000"
     borderopacity="0"
     inkscape:showpageshadow="2"
     inkscape:pageopacity="0"
     inkscape:pagecheckerboard="true"
     inkscape:deskcolor="#d1d1d1"
     inkscape:document-units="mm"
     showgrid="false"
     inkscape:zoom="1.0544998"
     inkscape:cx="330.0143"
     inkscape:cy="215.26795"
     inkscape:window-width="1920"
     inkscape:window-height="1017"
     inkscape:window-x="-8"
     inkscape:window-y="-8"
     inkscape:window-maximized="1"
     inkscape:current-layer="layer1" />
  <defs
     id="defs2" />
  <g
     inkscape:label="Layer 1"
     inkscape:groupmode="layer"
     id="layer1">
    <rect
       style="fill:#000000;stroke-width:0.264583"
       id="rect115"
       width="51.5298"
       height="201.30025"
       x="0.35483769"
       y="0.55787766"
       ry="19.161291"
       rx="12.064516" />
    <path
       style="fill:#ffffff;stroke-width:0.948317"
       d="M 42.419642,761.96195 C 28.056649,759.46737 14.386056,745.09149 7.488691,725.22886 2.0441718,709.55005 2.4762975,736.79717 2.1382142,387.86163 1.9246966,167.4902 2.1391195,65.890452 2.8289199,60.585336 6.2814977,34.032256 18.429357,13.095912 34.84814,5.4015058 l 5.45533,-2.556555 h 58.321492 58.321488 l 6.27313,2.9723037 c 15.13051,7.1690595 26.76346,26.1886565 30.66312,50.1334455 1.40942,8.654209 1.51961,37.584894 1.26047,330.96261 l -0.28396,321.47945 -2.10636,7.81087 c -5.93509,22.00869 -17.68651,38.55374 -31.2691,44.0244 l -5.48561,2.20943 -54.52823,0.15494 c -29.99052,0.0852 -56.563143,-0.19848 -59.050268,-0.63045 z"
       id="path526"
       transform="scale(0.26458333)" />
  </g>
</svg>
